<?xml version="1.0" encoding="utf-8"?>
<!-- Generator: Adobe Illustrator 27.3.1, SVG Export Plug-In . SVG Version: 6.00 Build 0)  -->
<svg version="1.1" id="Layer_1" xmlns="http://www.w3.org/2000/svg" xmlns:xlink="http://www.w3.org/1999/xlink" x="0px" y="0px"
	 viewBox="0 0 792 379" style="enable-background:new 0 0 792 379;" xml:space="preserve">
<style type="text/css">
	.st0{fill:url(#SVGID_1_);}
	.st1{fill:url(#SVGID_00000090276821653509637400000013243503330083991940_);}
	.st2{fill:url(#SVGID_00000058565610173476559680000005164625517996597146_);}
	.st3{fill:url(#SVGID_00000044860259354163043270000006888707191036618133_);}
	.st4{fill:url(#SVGID_00000029021454799248521480000006360598333728010141_);}
	.st5{fill:url(#SVGID_00000103259825721507300100000006060138657233285800_);}
	.st6{fill:url(#SVGID_00000074410436415285558580000006586778727919068859_);}
	.st7{fill:url(#SVGID_00000071543052059459742470000015599926058363494786_);}
	.st8{fill:url(#SVGID_00000183932300262628003880000005364635223398256788_);}
	.st9{fill:url(#SVGID_00000025406159504412307570000002103790284366127751_);}
	.st10{fill:url(#SVGID_00000056396369755257300120000007867206052029197443_);}
	.st11{fill:url(#SVGID_00000098900198400261335060000010605166703829068469_);}
	.st12{fill:url(#SVGID_00000003079917183509868680000018330213640260441498_);}
</style>
<g>
	
		<linearGradient id="SVGID_1_" gradientUnits="userSpaceOnUse" x1="-118.029" y1="266.5473" x2="540.691" y2="-130.2127" gradientTransform="matrix(1 0 0 -1 0 379.2756)">
		<stop  offset="0" style="stop-color:#654E9A"/>
		<stop  offset="1" style="stop-color:#50C0EC"/>
	</linearGradient>
	<path class="st0" d="M241.8,192.5c-8.2,0-14.8,6.6-14.8,14.8v43.4c0,54.4-44.3,98.7-98.7,98.7s-98.7-44.3-98.7-98.7V140.1
		c0-8.2-6.6-14.8-14.8-14.8S0,131.9,0,140.1v110.7C0,321.5,57.5,379,128.3,379s128.3-57.5,128.3-128.3v-43.4
		C256.5,199.2,249.9,192.5,241.8,192.5L241.8,192.5z"/>
	
		<linearGradient id="SVGID_00000062905573474641311450000016726241269911012232_" gradientUnits="userSpaceOnUse" x1="-75.3081" y1="337.4888" x2="583.4219" y2="-59.2712" gradientTransform="matrix(1 0 0 -1 0 379.2756)">
		<stop  offset="0" style="stop-color:#654E9A"/>
		<stop  offset="1" style="stop-color:#50C0EC"/>
	</linearGradient>
	<path style="fill:url(#SVGID_00000062905573474641311450000016726241269911012232_);" d="M128.2,320c41.1,0,74.5-33.4,74.5-74.5
		V101.1c0-8.2-6.6-14.8-14.8-14.8s-14.8,6.6-14.8,14.8v144.3c0,24.8-20.2,45-45,45s-45-20.2-45-45s22.3-45,47.7-45h14.8V15.2
		c0-8.2-6.6-14.8-14.8-14.8S116.1,7,116.1,15.2v157.2c-12.2,2.4-23.4,7.6-32.9,15V70.2c0-8.2-6.6-14.8-14.8-14.8
		s-14.8,6.6-14.8,14.8v173.2c0,0.2,0,0.4,0,0.6c0,0.5,0,0.9,0,1.4C53.7,286.5,87.1,319.9,128.2,320L128.2,320z"/>
	
		<linearGradient id="SVGID_00000002353407965883373890000001387760284430893442_" gradientUnits="userSpaceOnUse" x1="-11.1486" y1="443.9979" x2="647.5714" y2="47.2279" gradientTransform="matrix(1 0 0 -1 -7.890956e-03 379.2773)">
		<stop  offset="0" style="stop-color:#654E9A"/>
		<stop  offset="1" style="stop-color:#50C0EC"/>
	</linearGradient>
	<circle style="fill:url(#SVGID_00000002353407965883373890000001387760284430893442_);" cx="187.3" cy="54.8" r="14.1"/>
	
		<linearGradient id="SVGID_00000018940393134201093510000000261999151427058591_" gradientUnits="userSpaceOnUse" x1="24.0292" y1="502.4143" x2="682.7592" y2="105.6443" gradientTransform="matrix(1 0 0 -1 0 379.2756)">
		<stop  offset="0" style="stop-color:#654E9A"/>
		<stop  offset="1" style="stop-color:#50C0EC"/>
	</linearGradient>
	<polygon style="fill:url(#SVGID_00000018940393134201093510000000261999151427058591_);" points="347.5,175 374.3,175 374.3,24.3 
		399.9,24.3 399.9,0 321.9,0 321.9,24.3 347.5,24.3 	"/>
	
		<linearGradient id="SVGID_00000162316555413081132040000017620769206768770182_" gradientUnits="userSpaceOnUse" x1="46.5593" y1="539.8145" x2="705.2894" y2="143.0544" gradientTransform="matrix(1 0 0 -1 0 379.2756)">
		<stop  offset="0" style="stop-color:#654E9A"/>
		<stop  offset="1" style="stop-color:#50C0EC"/>
	</linearGradient>
	<path style="fill:url(#SVGID_00000162316555413081132040000017620769206768770182_);" d="M458.5,0c-13.1,0-23.2,3.7-30.1,11.2
		c-7,7.5-10.5,18-10.5,31.6v89.5c0,13.6,3.5,24.2,10.5,31.6c7,7.5,17,11.2,30.1,11.2s23.2-3.7,30.1-11.2s10.5-18,10.5-31.6V42.8
		c0-13.6-3.5-24.1-10.5-31.6C481.6,3.7,471.6,0,458.5,0z M472.3,134c0,11.2-4.6,16.8-13.9,16.8s-13.9-5.6-13.9-16.8V41.1
		c0-11.2,4.6-16.8,13.9-16.8s13.9,5.6,13.9,16.8V134L472.3,134z"/>
	
		<linearGradient id="SVGID_00000061434715904443355820000012003749462960688307_" gradientUnits="userSpaceOnUse" x1="76.4797" y1="589.4951" x2="735.2097" y2="192.725" gradientTransform="matrix(1 0 0 -1 0 379.2756)">
		<stop  offset="0" style="stop-color:#654E9A"/>
		<stop  offset="1" style="stop-color:#50C0EC"/>
	</linearGradient>
	<path style="fill:url(#SVGID_00000061434715904443355820000012003749462960688307_);" d="M571.8,134.2c0,5.8-1.2,10.1-3.5,12.6
		c-2.3,2.6-5.7,3.9-10.1,3.9s-7.7-1.3-10.1-3.9c-2.3-2.6-3.5-6.8-3.5-12.6V0h-26.8v132.2c0,13.8,3.4,24.4,10.2,31.7
		c6.8,7.4,16.7,11.1,29.7,11.1s22.9-3.7,29.7-11.1c6.8-7.4,10.2-17.9,10.2-31.7V0h-25.8L571.8,134.2L571.8,134.2z"/>
	
		<linearGradient id="SVGID_00000027588794847469812610000017065811826332434089_" gradientUnits="userSpaceOnUse" x1="98.6807" y1="626.3567" x2="757.4106" y2="229.5867" gradientTransform="matrix(1 0 0 -1 0 379.2756)">
		<stop  offset="0" style="stop-color:#654E9A"/>
		<stop  offset="1" style="stop-color:#50C0EC"/>
	</linearGradient>
	<path style="fill:url(#SVGID_00000027588794847469812610000017065811826332434089_);" d="M654.2,0c-12.8,0-22.6,3.7-29.3,10.9
		c-6.7,7.3-10.1,17.6-10.1,30.9v91.4c0,13.3,3.4,23.6,10.1,30.9c6.7,7.3,16.5,10.9,29.3,10.9s22.6-3.6,29.3-10.9
		c6.7-7.3,10.1-17.6,10.1-30.9v-24.1h-25.3v26c0,10.4-4.5,15.6-13.4,15.6s-13.4-5.2-13.4-15.6V40.1c0-10.5,4.5-15.8,13.4-15.8
		s13.4,5.3,13.4,15.8v19.7h25.3v-18c0-13.3-3.4-23.6-10.1-30.9C676.8,3.7,667,0,654.2,0L654.2,0z"/>
	
		<linearGradient id="SVGID_00000111911988541052510460000012002981839363373463_" gradientUnits="userSpaceOnUse" x1="124.2933" y1="668.871" x2="783.0133" y2="272.101" gradientTransform="matrix(1 0 0 -1 0 379.2756)">
		<stop  offset="0" style="stop-color:#654E9A"/>
		<stop  offset="1" style="stop-color:#50C0EC"/>
	</linearGradient>
	<polygon style="fill:url(#SVGID_00000111911988541052510460000012002981839363373463_);" points="765.2,1.4 765.2,71.7 737.7,71.7 
		737.7,1.4 711,1.4 711,175 737.7,175 737.7,96.1 765.2,96.1 765.2,175 792,175 792,1.4 	"/>
	
		<linearGradient id="SVGID_00000077317818380163544820000001547162662134143906_" gradientUnits="userSpaceOnUse" x1="-69.4974" y1="347.1333" x2="589.2225" y2="-49.6267" gradientTransform="matrix(1 0 0 -1 0 379.2756)">
		<stop  offset="0" style="stop-color:#654E9A"/>
		<stop  offset="1" style="stop-color:#50C0EC"/>
	</linearGradient>
	<path style="fill:url(#SVGID_00000077317818380163544820000001547162662134143906_);" d="M371.4,281.1
		c-8.8-7.6-14.8-14.1-18.1-19.5s-5-11.1-5-17.3c0-10.9,4.5-16.3,13.4-16.3c4.4,0,7.7,1.3,10,4s3.4,6.9,3.4,12.8v8.8h25.3v-7.1
		c0-13.8-3.3-24.4-9.9-31.7c-6.6-7.4-16.2-11.1-29.1-11.1s-22.9,3.7-29.7,11.1c-6.8,7.4-10.2,17.8-10.2,31.2
		c0,9.9,2.2,18.8,6.6,26.6c4.4,7.9,12.1,16.7,23.1,26.4c8.8,7.6,14.8,14.1,18,19.6s4.9,11.7,4.9,18.9c0,6-1.2,10.3-3.5,13
		s-5.8,4-10.3,4c-9.2,0-13.9-5.5-13.9-16.5v-11.7H321v9.7c0,13.8,3.3,24.4,10,31.7c6.6,7.4,16.5,11.1,29.4,11.1s23.1-3.7,30-11.2
		s10.3-18.1,10.3-32.1c0-10.7-2.1-20-6.3-28C390.2,299.6,382.5,290.8,371.4,281.1L371.4,281.1z"/>
	
		<linearGradient id="SVGID_00000031177091101132190600000001079854204076259471_" gradientUnits="userSpaceOnUse" x1="-43.4832" y1="390.3202" x2="615.2368" y2="-6.4498" gradientTransform="matrix(1 0 0 -1 0 379.2756)">
		<stop  offset="0" style="stop-color:#654E9A"/>
		<stop  offset="1" style="stop-color:#50C0EC"/>
	</linearGradient>
	<path style="fill:url(#SVGID_00000031177091101132190600000001079854204076259471_);" d="M458.5,203.7c-13.1,0-23.2,3.7-30.1,11.2
		c-7,7.5-10.5,18-10.5,31.6V336c0,13.6,3.5,24.2,10.5,31.6c7,7.5,17,11.2,30.1,11.2s23.2-3.7,30.1-11.2s10.5-18,10.5-31.6v-89.5
		c0-13.6-3.5-24.1-10.5-31.6C481.6,207.5,471.6,203.7,458.5,203.7L458.5,203.7z M472.3,337.7c0,11.2-4.6,16.8-13.9,16.8
		s-13.9-5.6-13.9-16.8v-92.9c0-11.2,4.6-16.8,13.9-16.8s13.9,5.6,13.9,16.8V337.7z"/>
	
		<linearGradient id="SVGID_00000008848780225144230250000008163179478691339664_" gradientUnits="userSpaceOnUse" x1="-13.5912" y1="439.9435" x2="645.1288" y2="43.1835" gradientTransform="matrix(1 0 0 -1 0 379.2756)">
		<stop  offset="0" style="stop-color:#654E9A"/>
		<stop  offset="1" style="stop-color:#50C0EC"/>
	</linearGradient>
	<path style="fill:url(#SVGID_00000008848780225144230250000008163179478691339664_);" d="M571.8,338c0,5.8-1.2,10-3.5,12.6
		c-2.3,2.6-5.7,3.9-10.1,3.9s-7.7-1.3-10.1-3.9c-2.3-2.6-3.5-6.8-3.5-12.6V203.8h-26.8V336c0,13.8,3.4,24.4,10.2,31.7
		c6.8,7.4,16.7,11.1,29.7,11.1s22.9-3.7,29.7-11.1c6.8-7.4,10.2-18,10.2-31.7V203.8h-25.8L571.8,338L571.8,338z"/>
	
		<linearGradient id="SVGID_00000026862766338684863980000001214042663787136138_" gradientUnits="userSpaceOnUse" x1="31.09" y1="514.1356" x2="689.8199" y2="117.3655" gradientTransform="matrix(1 0 0 -1 0 379.2756)">
		<stop  offset="0" style="stop-color:#654E9A"/>
		<stop  offset="1" style="stop-color:#50C0EC"/>
	</linearGradient>
	<path style="fill:url(#SVGID_00000026862766338684863980000001214042663787136138_);" d="M751.8,203.8H711v175h40.8
		c13.3,0,23.3-3.6,29.9-10.7c6.7-7.1,10-17.6,10-31.4v-90.8c0-13.8-3.3-24.2-10-31.4C775.1,207.4,765.1,203.8,751.8,203.8z
		 M765,337.9c0,5.8-1.2,10-3.5,12.6c-2.3,2.6-5.7,3.9-10.1,3.9h-13.6V228.1h13.6c4.4,0,7.7,1.3,10.1,3.9c2.3,2.6,3.5,6.8,3.5,12.6
		V337.9L765,337.9z"/>
	
		<linearGradient id="SVGID_00000076566128171298375420000005173095488889036982_" gradientUnits="userSpaceOnUse" x1="8.7901" y1="477.1057" x2="667.5101" y2="80.3458" gradientTransform="matrix(1 0 0 -1 0 379.2756)">
		<stop  offset="0" style="stop-color:#654E9A"/>
		<stop  offset="1" style="stop-color:#50C0EC"/>
	</linearGradient>
	<polygon style="fill:url(#SVGID_00000076566128171298375420000005173095488889036982_);" points="669,299.2 648.4,203.2 
		614.8,203.2 614.8,378.2 638.7,378.2 638.7,250.4 666.5,378.2 692.8,378.2 692.8,203.2 669,203.2 	"/>
</g>
</svg>
