<?xml version="1.0" encoding="utf-8"?>
<!-- Generator: Adobe Illustrator 27.3.1, SVG Export Plug-In . SVG Version: 6.00 Build 0)  -->
<svg version="1.1" id="Layer_1" xmlns:serif="http://www.serif.com/"
	 xmlns="http://www.w3.org/2000/svg" xmlns:xlink="http://www.w3.org/1999/xlink" x="0px" y="0px" viewBox="0 0 841.9 472.3"
	 style="enable-background:new 0 0 841.9 472.3;" xml:space="preserve">
<style type="text/css">
	.st0{fill:#FFFFFF;}
</style>
<g>
	<path class="st0" d="M265.8,239.2c-8.2,0-14.8,6.6-14.8,14.8v43.4c0,54.4-44.3,98.7-98.7,98.7c-54.4,0-98.7-44.3-98.7-98.7V186.7
		c0-8.2-6.6-14.8-14.8-14.8c-8.2,0-14.8,6.6-14.8,14.8v110.7c0,70.7,57.5,128.3,128.3,128.3c70.7,0,128.3-57.5,128.3-128.3v-43.4
		C280.5,245.8,273.9,239.2,265.8,239.2z"/>
	<path class="st0" d="M152.2,366.6c41.1,0,74.5-33.4,74.5-74.5V147.7c0-8.2-6.6-14.8-14.8-14.8c-8.2,0-14.8,6.6-14.8,14.8v144.3
		c0,24.8-20.2,45-45,45s-45-20.2-45-45c0-24,22.3-45,47.7-45h14.8V61.8c0-8.2-6.6-14.8-14.8-14.8s-14.8,6.6-14.8,14.8V219
		c-12.2,2.4-23.4,7.6-32.9,15V116.9c0-8.2-6.6-14.8-14.8-14.8s-14.8,6.6-14.8,14.8V290c0,0.2,0,0.4,0,0.6c0,0.5,0,0.9,0,1.4
		C77.7,333.1,111.1,366.6,152.2,366.6z"/>
	
		<ellipse transform="matrix(0.7071 -0.7071 0.7071 0.7071 -9.8326 179.1036)" class="st0" cx="211.3" cy="101.4" rx="14.1" ry="14.1"/>
	<polygon class="st0" points="371.5,221.6 398.3,221.6 398.3,70.9 423.9,70.9 423.9,46.6 345.9,46.6 345.9,70.9 371.5,70.9 	"/>
	<path class="st0" d="M482.4,46.6c-13.1,0-23.2,3.7-30.2,11.2c-7,7.5-10.5,18-10.5,31.6v89.5c0,13.6,3.5,24.2,10.5,31.6
		c7,7.5,17,11.2,30.2,11.2c13.1,0,23.2-3.7,30.2-11.2c7-7.5,10.5-18,10.5-31.6V89.4c0-13.6-3.5-24.2-10.5-31.6
		C505.6,50.3,495.6,46.6,482.4,46.6z M496.3,180.6c0,11.2-4.6,16.8-13.9,16.8c-9.2,0-13.9-5.6-13.9-16.8V87.7
		c0-11.2,4.6-16.8,13.9-16.8c9.2,0,13.9,5.6,13.9,16.8V180.6z"/>
	<path class="st0" d="M595.8,180.8c0,5.8-1.2,10.1-3.5,12.6c-2.4,2.6-5.7,3.9-10.1,3.9s-7.7-1.3-10.1-3.9c-2.4-2.6-3.5-6.8-3.5-12.6
		V46.6h-26.7v132.2c0,13.8,3.4,24.4,10.2,31.7c6.8,7.4,16.7,11.1,29.7,11.1c13,0,22.9-3.7,29.7-11.1c6.8-7.4,10.2-18,10.2-31.7V46.6
		h-25.8V180.8z"/>
	<path class="st0" d="M678.2,46.6c-12.8,0-22.6,3.6-29.3,10.9c-6.7,7.3-10.1,17.6-10.1,30.9v91.4c0,13.3,3.4,23.6,10.1,30.9
		c6.7,7.3,16.5,10.9,29.3,10.9c12.8,0,22.6-3.6,29.3-10.9c6.7-7.3,10.1-17.6,10.1-30.9v-24.1h-25.3v26c0,10.4-4.5,15.6-13.4,15.6
		c-8.9,0-13.4-5.2-13.4-15.6V86.7c0-10.5,4.5-15.8,13.4-15.8c8.9,0,13.4,5.3,13.4,15.8v19.7h25.3v-18c0-13.3-3.4-23.6-10.1-30.9
		C700.8,50.3,691,46.6,678.2,46.6z"/>
	<polygon class="st0" points="789.3,48 789.3,118.4 761.7,118.4 761.7,48 735,48 735,221.6 761.7,221.6 761.7,142.7 789.3,142.7 
		789.3,221.6 816,221.6 816,48 	"/>
	<path class="st0" d="M395.4,327.7c-8.8-7.6-14.8-14.1-18.1-19.5c-3.3-5.3-5-11.1-5-17.3c0-10.9,4.5-16.3,13.4-16.3
		c4.4,0,7.7,1.3,10,4c2.3,2.7,3.4,6.9,3.4,12.8v8.8h25.3v-7.1c0-13.8-3.3-24.4-9.8-31.7c-6.6-7.4-16.3-11.1-29.1-11.1
		c-13,0-22.9,3.7-29.7,11.1c-6.8,7.4-10.2,17.8-10.2,31.2c0,9.9,2.2,18.8,6.6,26.6c4.4,7.9,12.1,16.7,23.1,26.4
		c8.8,7.6,14.7,14.1,18,19.6c3.2,5.4,4.9,11.7,4.9,18.8c0,6-1.2,10.3-3.5,13c-2.4,2.7-5.8,4-10.3,4c-9.2,0-13.9-5.5-13.9-16.5v-11.7
		H345v9.7c0,13.8,3.3,24.4,10,31.7c6.6,7.4,16.5,11.1,29.4,11.1c13.1,0,23.1-3.7,30-11.2c6.9-7.5,10.3-18.2,10.3-32.1
		c0-10.7-2.1-20-6.3-28C414.2,346.2,406.5,337.4,395.4,327.7z"/>
	<path class="st0" d="M482.4,250.4c-13.1,0-23.2,3.7-30.2,11.2c-7,7.5-10.5,18-10.5,31.6v89.5c0,13.6,3.5,24.2,10.5,31.6
		c7,7.5,17,11.2,30.2,11.2c13.1,0,23.2-3.7,30.2-11.2c7-7.5,10.5-18,10.5-31.6v-89.5c0-13.6-3.5-24.2-10.5-31.6
		C505.6,254.1,495.6,250.4,482.4,250.4z M496.3,384.3c0,11.2-4.6,16.8-13.9,16.8c-9.2,0-13.9-5.6-13.9-16.8v-92.9
		c0-11.2,4.6-16.8,13.9-16.8c9.2,0,13.9,5.6,13.9,16.8V384.3z"/>
	<path class="st0" d="M595.8,384.6c0,5.8-1.2,10.1-3.5,12.6c-2.4,2.6-5.7,3.9-10.1,3.9s-7.7-1.3-10.1-3.9c-2.4-2.6-3.5-6.8-3.5-12.6
		V250.4h-26.7v132.2c0,13.8,3.4,24.4,10.2,31.7c6.8,7.4,16.7,11.1,29.7,11.1c13,0,22.9-3.7,29.7-11.1c6.8-7.4,10.2-18,10.2-31.7
		V250.4h-25.8V384.6z"/>
	<path class="st0" d="M775.8,250.4H735v175h40.9c13.3,0,23.3-3.6,29.9-10.7c6.6-7.1,10-17.6,10-31.4v-90.8c0-13.8-3.3-24.2-10-31.4
		C799.1,254,789.1,250.4,775.8,250.4z M789,384.5c0,5.8-1.2,10.1-3.5,12.6c-2.4,2.6-5.7,3.9-10.1,3.9h-13.6V274.7h13.6
		c4.4,0,7.7,1.3,10.1,3.9c2.3,2.6,3.5,6.8,3.5,12.6V384.5z"/>
	<polygon class="st0" points="693,345.8 672.4,249.8 638.8,249.8 638.8,424.8 662.7,424.8 662.7,297 690.5,424.8 716.8,424.8 
		716.8,249.8 693,249.8 	"/>
</g>
</svg>
